<svg xmlns="http://www.w3.org/2000/svg" viewBox="0 0 100 100" fill="none">
  <path d="M50 0C22.3858 0 0 22.3858 0 50C0 77.6142 22.3858 100 50 100C77.6142 100 100 77.6142 100 50C100 22.3858 77.6142 0 50 0Z" fill="#635BFF"/>
  <path d="M49.2083 62.4583H37.8333C37.8333 55.4583 43.1667 52.3333 49.2083 48.6667C55.25 45 58.7083 42.1667 58.7083 37.1667C58.7083 31.8333 54 28.3333 48.3333 28.3333C42.8333 28.3333 37.5417 31.0417 32.5 35.8333V24.5833C37.5 20.375 43.125 18.2083 49.3333 18.2083C60.2917 18.2083 69.8333 24.375 69.8333 36.375C69.8333 46.4583 64 49.7083 57.75 53.4167C51.5 57.125 49.2083 59 49.2083 62.4583ZM50.7917 37.5417H62.1667C62.1667 44.5417 56.8333 47.6667 50.7917 51.3333C44.75 55 41.2917 57.8333 41.2917 62.8333C41.2917 68.1667 46 71.6667 51.6667 71.6667C57.1667 71.6667 62.4583 68.9583 67.5 64.1667V75.4167C62.5 79.625 56.875 81.7917 50.6667 81.7917C39.7083 81.7917 30.1667 75.625 30.1667 63.625C30.1667 53.5417 36 50.2917 42.25 46.5833C48.5 42.875 50.7917 41 50.7917 37.5417Z" fill="white"/>
</svg>
